HIERARCHY
ROOT joint_Root
{
	OFFSET 0.0 0.0 0.0
	CHANNELS 6 Xposition Yposition Zposition Zrotation Xrotation Yrotation 
	JOINT Hips
	{
		OFFSET -0.726466 93.3139 -2.00062
		CHANNELS 6 Xposition Yposition Zposition Zrotation Xrotation Yrotation 
		JOINT Spine
		{
			OFFSET 15.7357 0.0 0.0
			CHANNELS 6 Xposition Yposition Zposition Zrotation Xrotation Yrotation 
			JOINT Chest
			{
				OFFSET 8.98455 -0.406207 0.0
				CHANNELS 6 Xposition Yposition Zposition Zrotation Xrotation Yrotation 
				JOINT Neck
				{
					OFFSET 16.3773 0.0 0.0
					CHANNELS 6 Xposition Yposition Zposition Zrotation Xrotation Yrotation 
					JOINT Head
					{
						OFFSET 6.45672 0.0 0.0
						CHANNELS 6 Xposition Yposition Zposition Zrotation Xrotation Yrotation 
						End Site
						{
							OFFSET 0.0 0.0 0.0
						}
					}
				}
				JOINT Shoulder_L
				{
					OFFSET 12.9942 -0.242716 4.98039
					CHANNELS 6 Xposition Yposition Zposition Zrotation Xrotation Yrotation 
					JOINT UpperArm_L
					{
						OFFSET 5.34809 0.0 0.0
						CHANNELS 6 Xposition Yposition Zposition Zrotation Xrotation Yrotation 
						JOINT LowerArm_L
						{
							OFFSET 24.3286 1.87007e-05 0.0
							CHANNELS 6 Xposition Yposition Zposition Zrotation Xrotation Yrotation 
							JOINT Hand_L
							{
								OFFSET 22.2916 0.0 0.0
								CHANNELS 6 Xposition Yposition Zposition Zrotation Xrotation Yrotation 
								End Site
								{
									OFFSET 0.0 0.0 0.0
								}
							}
						}
					}
				}
				JOINT Shoulder_R
				{
					OFFSET 12.9945 -0.242716 -4.98039
					CHANNELS 6 Xposition Yposition Zposition Zrotation Xrotation Yrotation 
					JOINT UpperArm_R
					{
						OFFSET -5.34813 0.0 0.0
						CHANNELS 6 Xposition Yposition Zposition Zrotation Xrotation Yrotation 
						JOINT LowerArm_R
						{
							OFFSET -24.3289 0.000322201 0.0
							CHANNELS 6 Xposition Yposition Zposition Zrotation Xrotation Yrotation 
							JOINT Hand_R
							{
								OFFSET -22.2915 -0.000108084 0.0
								CHANNELS 6 Xposition Yposition Zposition Zrotation Xrotation Yrotation 
								End Site
								{
									OFFSET 0.0 0.0 0.0
								}
							}
						}
					}
				}
			}
		}
		JOINT UpperLeg_L
		{
			OFFSET -2.19248 -6.46944 0.0
			CHANNELS 6 Xposition Yposition Zposition Zrotation Xrotation Yrotation 
			JOINT LowerLeg_L
			{
				OFFSET 39.0811 0.0 -1.23785e-05
				CHANNELS 6 Xposition Yposition Zposition Zrotation Xrotation Yrotation 
				JOINT Foot_L
				{
					OFFSET 40.9854 0.0 -1.26872e-05
					CHANNELS 6 Xposition Yposition Zposition Zrotation Xrotation Yrotation 
					JOINT Toes_L
					{
						OFFSET 11.7543 0.0 0.0
						CHANNELS 6 Xposition Yposition Zposition Zrotation Xrotation Yrotation 
						End Site
						{
							OFFSET 0.0 0.0 0.0
						}
					}
				}
			}
		}
		JOINT UpperLeg_R
		{
			OFFSET -2.19251 6.46944 0.0
			CHANNELS 6 Xposition Yposition Zposition Zrotation Xrotation Yrotation 
			JOINT LowerLeg_R
			{
				OFFSET -39.0811 -0.00228153 -0.0401928
				CHANNELS 6 Xposition Yposition Zposition Zrotation Xrotation Yrotation 
				JOINT Foot_R
				{
					OFFSET -40.9854 0.0 0.0
					CHANNELS 6 Xposition Yposition Zposition Zrotation Xrotation Yrotation 
					JOINT Toes_R
					{
						OFFSET -11.7543 0.0 0.0
						CHANNELS 6 Xposition Yposition Zposition Zrotation Xrotation Yrotation 
						End Site
						{
							OFFSET 0.0 0.0 0.0
						}
					}
				}
			}
		}
	}
}
MOTION
Frames:	5
Frame Time:	0.0333333
0.000000 0.000000 0.000000 0.000000 0.000000 -0.000000 -1.219590 91.857500 -0.002565 87.368100 -2.609450 5.025990 15.735700 0.000005 -0.000001 93.594500 86.540400 -94.022700 8.984550 -0.406207 -0.000000 -0.858552 0.465927 -0.852406 16.377300 -0.000001 -0.000001 2.308340 -2.267350 3.496610 6.456720 -0.000001 -0.000000 4.307200 -2.239540 -2.990380 12.994200 -0.242716 4.980390 -88.941300 -3.206050 -71.714600 5.348090 -0.000007 -0.000001 30.930100 77.149800 -77.125000 24.328600 0.000019 0.000005 10.844400 0.397551 -87.925700 22.291600 -0.000001 0.000005 44.076600 5.600520 -30.867500 12.994500 -0.242716 -4.980390 91.134100 -2.733600 -67.457600 -5.348130 -0.000001 -0.000004 -52.713200 -47.572700 -104.485000 -24.328900 0.000322 -0.000009 6.431460 6.780170 -43.680500 -22.291500 -0.000108 -0.000004 20.196400 5.416910 -3.495360 -2.192480 -6.469440 -0.000000 -167.538000 -20.006300 -0.262089 39.081100 -0.000007 -0.000012 -0.196541 0.458239 23.215100 40.985400 -0.000006 -0.000013 -6.566040 0.389966 -65.054100 11.754300 -0.000000 0.000003 -0.000103 -0.001056 -16.618100 -2.192510 6.469440 -0.000001 173.842000 22.761800 -178.305000 -39.081100 -0.002282 -0.040193 -0.009682 0.034845 20.462900 -40.985400 0.000008 0.000006 -2.152800 3.396070 -64.588500 -11.754300 -0.000006 -0.000006 -0.003375 -0.044771 -18.394000
0.000000 0.000000 0.000000 0.000000 0.000000 -0.000000 -1.218500 91.854100 -0.024742 87.383400 -2.615330 5.041070 15.735700 0.000005 -0.000001 93.846800 86.520500 -94.279600 8.984550 -0.406207 -0.000000 -0.820680 0.499193 -0.861600 16.377300 -0.000001 -0.000001 2.337030 -2.264790 3.513600 6.456720 -0.000001 -0.000000 4.264450 -2.243150 -3.022350 12.994200 -0.242716 4.980390 -88.941300 -3.203340 -71.700700 5.348090 -0.000007 -0.000001 30.751800 77.114500 -76.935600 24.328600 0.000019 0.000005 10.879100 0.395366 -87.943800 22.291600 -0.000001 0.000005 43.948800 5.600980 -30.840000 12.994500 -0.242716 -4.980390 91.129100 -2.713750 -67.398500 -5.348130 -0.000001 -0.000004 -52.740300 -47.629900 -104.566000 -24.328900 0.000322 -0.000009 6.411190 6.744310 -43.740500 -22.291500 -0.000108 -0.000004 20.176700 5.417060 -3.500240 -2.192480 -6.469440 -0.000000 -167.554000 -20.059200 -0.284715 39.081100 -0.000007 -0.000012 -0.194846 0.453387 23.256300 40.985400 -0.000006 -0.000013 -6.544090 0.426035 -65.052600 11.754300 -0.000000 0.000003 -0.000109 -0.001111 -16.620100 -2.192510 6.469440 -0.000001 173.829000 22.671500 -178.324000 -39.081100 -0.002282 -0.040193 -0.011810 0.040492 20.489000 -40.985400 0.000008 0.000006 -2.236810 3.356770 -64.583100 -11.754300 -0.000006 -0.000006 -0.003546 -0.046628 -18.469600
0.000000 0.000000 0.000000 0.000000 0.000000 -0.000000 -1.217560 91.863700 -0.074520 87.376100 -2.573450 5.040140 15.735700 0.000005 -0.000001 93.563700 86.514000 -93.989300 8.984550 -0.406207 -0.000000 -0.805684 0.465097 -0.847601 16.377300 -0.000001 -0.000001 2.350240 -2.252270 3.528200 6.456720 -0.000001 -0.000000 4.363680 -2.212370 -3.037770 12.994200 -0.242716 4.980390 -88.942200 -3.197860 -71.686400 5.348090 -0.000007 -0.000001 30.584800 77.163200 -76.769700 24.328600 0.000019 0.000005 10.912400 0.397021 -87.941700 22.291600 -0.000001 0.000005 43.925800 5.601380 -30.815600 12.994500 -0.242716 -4.980390 91.143400 -2.748770 -67.403000 -5.348130 -0.000001 -0.000004 -52.754000 -47.663100 -104.592000 -24.328900 0.000322 -0.000009 6.429210 6.758580 -43.761300 -22.291500 -0.000108 -0.000004 20.204800 5.418960 -3.564260 -2.192480 -6.469440 -0.000000 -167.557000 -20.029200 -0.317104 39.081100 -0.000007 -0.000012 -0.195309 0.455233 23.221100 40.985400 -0.000006 -0.000013 -6.532110 0.451813 -64.996000 11.754300 -0.000000 0.000003 -0.000112 -0.001136 -16.621100 -2.192510 6.469440 -0.000001 173.862000 22.721700 -178.347000 -39.081100 -0.002282 -0.040193 -0.009131 0.033345 20.475900 -40.985400 0.000008 0.000006 -2.133040 3.321230 -64.559400 -11.754300 -0.000006 -0.000006 -0.003780 -0.049135 -18.571700
0.000000 0.000000 0.000000 0.000000 0.000000 -0.000000 -1.206810 91.865800 -0.114003 87.397900 -2.561850 5.079620 15.735700 0.000005 -0.000001 93.711800 86.493600 -94.145100 8.984550 -0.406207 -0.000000 -0.766032 0.486144 -0.862778 16.377300 -0.000001 -0.000001 2.417040 -2.274980 3.582570 6.456720 -0.000001 -0.000000 4.390840 -2.250240 -3.038600 12.994200 -0.242716 4.980390 -88.941300 -3.198210 -71.673200 5.348090 -0.000007 -0.000001 30.557000 77.155400 -76.763700 24.328600 0.000019 0.000005 10.967000 0.405590 -87.908000 22.291600 -0.000001 0.000005 44.053200 5.602020 -30.777400 12.994500 -0.242716 -4.980390 91.145200 -2.748850 -67.372900 -5.348130 -0.000001 -0.000004 -52.762900 -47.697700 -104.593000 -24.328900 0.000322 -0.000009 6.486340 6.807640 -43.810500 -22.291500 -0.000108 -0.000004 20.115400 5.417340 -3.509730 -2.192480 -6.469440 -0.000000 -167.589000 -20.030700 -0.314733 39.081100 -0.000007 -0.000012 -0.193578 0.450982 23.231000 40.985400 -0.000006 -0.000013 -6.510030 0.446884 -64.976200 11.754300 -0.000000 0.000003 -0.000101 -0.001034 -16.617200 -2.192510 6.469440 -0.000001 173.812000 22.717900 -178.334000 -39.081100 -0.002282 -0.040193 -0.012453 0.042242 20.476100 -40.985400 0.000008 0.000006 -2.197090 3.338430 -64.523500 -11.754300 -0.000006 -0.000006 -0.003567 -0.046858 -18.479000
0.000000 0.000000 0.000000 0.000000 0.000000 -0.000000 -1.199500 91.870200 -0.159831 87.385100 -2.520950 5.091380 15.735700 0.000005 -0.000001 93.612800 86.475600 -94.042600 8.984550 -0.406207 -0.000000 -0.729403 0.475915 -0.856208 16.377300 -0.000001 -0.000001 2.464400 -2.303740 3.635630 6.456720 -0.000001 -0.000000 4.414500 -2.249620 -3.031610 12.994200 -0.242716 4.980390 -88.931700 -3.219630 -71.632700 5.348090 -0.000007 -0.000001 30.257300 77.129100 -76.497500 24.328600 0.000019 0.000005 10.941600 0.406676 -87.897400 22.291600 -0.000001 0.000005 43.909000 5.600200 -30.886700 12.994500 -0.242716 -4.980390 91.146600 -2.748260 -67.342100 -5.348130 -0.000001 -0.000004 -52.841200 -47.689300 -104.620000 -24.328900 0.000322 -0.000009 6.505330 6.814920 -43.864500 -22.291500 -0.000108 -0.000004 20.070700 5.418050 -3.533470 -2.192480 -6.469440 -0.000000 -167.585000 -20.013900 -0.349494 39.081100 -0.000007 -0.000012 -0.194015 0.451784 23.240900 40.985400 -0.000006 -0.000013 -6.488660 0.487336 -64.948300 11.754300 -0.000000 0.000003 -0.000101 -0.001036 -16.617300 -2.192510 6.469440 -0.000001 173.823000 22.737500 -178.330000 -39.081100 -0.002282 -0.040193 -0.012157 0.041530 20.439000 -40.985400 0.000008 0.000006 -2.264590 3.340350 -64.472100 -11.754300 -0.000006 -0.000006 -0.003690 -0.048178 -18.532700
